<mxfile host="app.diagrams.net" modified="2020-05-31T06:14:08.696Z" agent="5.0 (Macintosh; Intel Mac OS X 10_15_4) AppleWebKit/537.36 (KHTML, like Gecko) Chrome/81.0.4044.138 Safari/537.36" etag="3zCQSKfXYyKyzApF1_lQ" version="13.1.2" type="github">
  <diagram id="6a731a19-8d31-9384-78a2-239565b7b9f0" name="Page-1">
    <mxGraphModel dx="2282" dy="1522" grid="1" gridSize="10" guides="1" tooltips="1" connect="1" arrows="1" fold="1" page="1" pageScale="1" pageWidth="1169" pageHeight="827" background="#ffffff" math="0" shadow="0">
      <root>
        <mxCell id="0" />
        <mxCell id="1" parent="0" />
        <mxCell id="Mnyc61CYcTs_VfRObphj-1774" value="" style="group;fillColor=#fff2cc;strokeColor=#d6b656;" vertex="1" connectable="0" parent="1">
          <mxGeometry x="-180" y="20" width="300" height="40" as="geometry" />
        </mxCell>
        <mxCell id="Mnyc61CYcTs_VfRObphj-1771" value="Key" style="rounded=1;whiteSpace=wrap;html=1;shadow=0;labelBackgroundColor=none;strokeColor=#d6b656;strokeWidth=3;fillColor=#fff2cc;fontFamily=Helvetica;fontSize=14;align=center;spacing=5;arcSize=7;perimeterSpacing=2;fontStyle=1" vertex="1" parent="Mnyc61CYcTs_VfRObphj-1774">
          <mxGeometry width="150" height="40" as="geometry" />
        </mxCell>
        <mxCell id="Mnyc61CYcTs_VfRObphj-1773" value="Value" style="rounded=1;whiteSpace=wrap;html=1;shadow=0;labelBackgroundColor=none;strokeColor=#d6b656;strokeWidth=3;fillColor=#fff2cc;fontFamily=Helvetica;fontSize=14;align=center;spacing=5;arcSize=7;perimeterSpacing=2;fontStyle=1" vertex="1" parent="Mnyc61CYcTs_VfRObphj-1774">
          <mxGeometry x="150" width="150" height="40" as="geometry" />
        </mxCell>
        <mxCell id="Mnyc61CYcTs_VfRObphj-1776" value="&lt;font style=&quot;font-size: 18px&quot;&gt;&lt;i&gt;src Map&lt;/i&gt;&lt;/font&gt;" style="rounded=1;whiteSpace=wrap;html=1;shadow=0;labelBackgroundColor=none;strokeColor=#d6b656;strokeWidth=3;fillColor=#fff2cc;fontFamily=Helvetica;fontSize=14;align=center;spacing=5;arcSize=7;perimeterSpacing=2;fontStyle=1" vertex="1" parent="1">
          <mxGeometry x="-180" y="-20" width="300" height="40" as="geometry" />
        </mxCell>
        <mxCell id="Mnyc61CYcTs_VfRObphj-1778" value="" style="group;fillColor=#fff2cc;strokeColor=#d6b656;" vertex="1" connectable="0" parent="1">
          <mxGeometry x="-180" y="60" width="300" height="40" as="geometry" />
        </mxCell>
        <mxCell id="Mnyc61CYcTs_VfRObphj-1779" value="192.168.3.0/24" style="rounded=1;whiteSpace=wrap;html=1;shadow=0;labelBackgroundColor=none;strokeColor=#d6b656;strokeWidth=3;fillColor=#fff2cc;fontFamily=Helvetica;fontSize=14;align=center;spacing=5;arcSize=7;perimeterSpacing=2;fontStyle=1" vertex="1" parent="Mnyc61CYcTs_VfRObphj-1778">
          <mxGeometry width="150" height="40" as="geometry" />
        </mxCell>
        <mxCell id="Mnyc61CYcTs_VfRObphj-1780" value="0x1" style="rounded=1;whiteSpace=wrap;html=1;shadow=0;labelBackgroundColor=none;strokeColor=#d6b656;strokeWidth=3;fillColor=#fff2cc;fontFamily=Helvetica;fontSize=14;align=center;spacing=5;arcSize=7;perimeterSpacing=2;fontStyle=1" vertex="1" parent="Mnyc61CYcTs_VfRObphj-1778">
          <mxGeometry x="150" width="150" height="40" as="geometry" />
        </mxCell>
        <mxCell id="Mnyc61CYcTs_VfRObphj-1784" value="" style="group;fillColor=#d5e8d4;strokeColor=#82b366;" vertex="1" connectable="0" parent="1">
          <mxGeometry x="-180" y="160" width="300" height="40" as="geometry" />
        </mxCell>
        <mxCell id="Mnyc61CYcTs_VfRObphj-1785" value="Key" style="rounded=1;whiteSpace=wrap;html=1;shadow=0;labelBackgroundColor=none;strokeColor=#82b366;strokeWidth=3;fillColor=#d5e8d4;fontFamily=Helvetica;fontSize=14;align=center;spacing=5;arcSize=7;perimeterSpacing=2;fontStyle=1" vertex="1" parent="Mnyc61CYcTs_VfRObphj-1784">
          <mxGeometry width="150" height="40" as="geometry" />
        </mxCell>
        <mxCell id="Mnyc61CYcTs_VfRObphj-1786" value="Value" style="rounded=1;whiteSpace=wrap;html=1;shadow=0;labelBackgroundColor=none;strokeColor=#82b366;strokeWidth=3;fillColor=#d5e8d4;fontFamily=Helvetica;fontSize=14;align=center;spacing=5;arcSize=7;perimeterSpacing=2;fontStyle=1" vertex="1" parent="Mnyc61CYcTs_VfRObphj-1784">
          <mxGeometry x="150" width="150" height="40" as="geometry" />
        </mxCell>
        <mxCell id="Mnyc61CYcTs_VfRObphj-1787" value="&lt;i&gt;&lt;font style=&quot;font-size: 18px&quot;&gt;sport Map&lt;/font&gt;&lt;/i&gt;" style="rounded=1;whiteSpace=wrap;html=1;shadow=0;labelBackgroundColor=none;strokeColor=#82b366;strokeWidth=3;fillColor=#d5e8d4;fontFamily=Helvetica;fontSize=14;align=center;spacing=5;arcSize=7;perimeterSpacing=2;fontStyle=1" vertex="1" parent="1">
          <mxGeometry x="-180" y="120" width="300" height="40" as="geometry" />
        </mxCell>
        <mxCell id="Mnyc61CYcTs_VfRObphj-1791" value="" style="group;fillColor=#d5e8d4;strokeColor=#82b366;" vertex="1" connectable="0" parent="1">
          <mxGeometry x="140" y="120" width="300" height="40" as="geometry" />
        </mxCell>
        <mxCell id="Mnyc61CYcTs_VfRObphj-1792" value="Key" style="rounded=1;whiteSpace=wrap;html=1;shadow=0;labelBackgroundColor=none;strokeColor=#82b366;strokeWidth=3;fillColor=#d5e8d4;fontFamily=Helvetica;fontSize=14;align=center;spacing=5;arcSize=7;perimeterSpacing=2;fontStyle=1" vertex="1" parent="Mnyc61CYcTs_VfRObphj-1791">
          <mxGeometry width="150" height="40" as="geometry" />
        </mxCell>
        <mxCell id="Mnyc61CYcTs_VfRObphj-1793" value="Value" style="rounded=1;whiteSpace=wrap;html=1;shadow=0;labelBackgroundColor=none;strokeColor=#82b366;strokeWidth=3;fillColor=#d5e8d4;fontFamily=Helvetica;fontSize=14;align=center;spacing=5;arcSize=7;perimeterSpacing=2;fontStyle=1" vertex="1" parent="Mnyc61CYcTs_VfRObphj-1791">
          <mxGeometry x="150" width="150" height="40" as="geometry" />
        </mxCell>
        <mxCell id="Mnyc61CYcTs_VfRObphj-1794" value="&lt;font style=&quot;font-size: 18px&quot;&gt;&lt;i&gt;dport Map&lt;/i&gt;&lt;/font&gt;" style="rounded=1;whiteSpace=wrap;html=1;shadow=0;labelBackgroundColor=none;strokeColor=#82b366;strokeWidth=3;fillColor=#d5e8d4;fontFamily=Helvetica;fontSize=14;align=center;spacing=5;arcSize=7;perimeterSpacing=2;fontStyle=1" vertex="1" parent="1">
          <mxGeometry x="140" y="80" width="300" height="40" as="geometry" />
        </mxCell>
        <mxCell id="Mnyc61CYcTs_VfRObphj-1798" value="" style="group;fillColor=#d5e8d4;strokeColor=#82b366;" vertex="1" connectable="0" parent="1">
          <mxGeometry x="140" y="160" width="300" height="40" as="geometry" />
        </mxCell>
        <mxCell id="Mnyc61CYcTs_VfRObphj-1799" value="53" style="rounded=1;whiteSpace=wrap;html=1;shadow=0;labelBackgroundColor=none;strokeColor=#82b366;strokeWidth=3;fillColor=#d5e8d4;fontFamily=Helvetica;fontSize=14;align=center;spacing=5;arcSize=7;perimeterSpacing=2;fontStyle=1" vertex="1" parent="Mnyc61CYcTs_VfRObphj-1798">
          <mxGeometry width="150" height="40" as="geometry" />
        </mxCell>
        <mxCell id="Mnyc61CYcTs_VfRObphj-1800" value="0x110" style="rounded=1;whiteSpace=wrap;html=1;shadow=0;labelBackgroundColor=none;strokeColor=#82b366;strokeWidth=3;fillColor=#d5e8d4;fontFamily=Helvetica;fontSize=14;align=center;spacing=5;arcSize=7;perimeterSpacing=2;fontStyle=1" vertex="1" parent="Mnyc61CYcTs_VfRObphj-1798">
          <mxGeometry x="150" width="150" height="40" as="geometry" />
        </mxCell>
        <mxCell id="Mnyc61CYcTs_VfRObphj-1808" value="" style="group;fillColor=#d0cee2;strokeColor=#56517e;" vertex="1" connectable="0" parent="1">
          <mxGeometry x="140" y="200" width="300" height="40" as="geometry" />
        </mxCell>
        <mxCell id="Mnyc61CYcTs_VfRObphj-1809" value="80" style="rounded=1;whiteSpace=wrap;html=1;shadow=0;labelBackgroundColor=none;strokeColor=#82b366;strokeWidth=3;fillColor=#d5e8d4;fontFamily=Helvetica;fontSize=14;align=center;spacing=5;arcSize=7;perimeterSpacing=2;fontStyle=1" vertex="1" parent="Mnyc61CYcTs_VfRObphj-1808">
          <mxGeometry width="150" height="40" as="geometry" />
        </mxCell>
        <mxCell id="Mnyc61CYcTs_VfRObphj-1810" value="0x10" style="rounded=1;whiteSpace=wrap;html=1;shadow=0;labelBackgroundColor=none;strokeColor=#82b366;strokeWidth=3;fillColor=#d5e8d4;fontFamily=Helvetica;fontSize=14;align=center;spacing=5;arcSize=7;perimeterSpacing=2;fontStyle=1" vertex="1" parent="Mnyc61CYcTs_VfRObphj-1808">
          <mxGeometry x="150" width="150" height="40" as="geometry" />
        </mxCell>
        <mxCell id="Mnyc61CYcTs_VfRObphj-1811" value="" style="group;fillColor=#f8cecc;strokeColor=#b85450;" vertex="1" connectable="0" parent="1">
          <mxGeometry x="140" y="300" width="300" height="40" as="geometry" />
        </mxCell>
        <mxCell id="Mnyc61CYcTs_VfRObphj-1812" value="Key" style="rounded=1;whiteSpace=wrap;html=1;shadow=0;labelBackgroundColor=none;strokeColor=#b85450;strokeWidth=3;fillColor=#f8cecc;fontFamily=Helvetica;fontSize=14;align=center;spacing=5;arcSize=7;perimeterSpacing=2;fontStyle=1" vertex="1" parent="Mnyc61CYcTs_VfRObphj-1811">
          <mxGeometry width="150" height="40" as="geometry" />
        </mxCell>
        <mxCell id="Mnyc61CYcTs_VfRObphj-1813" value="Value" style="rounded=1;whiteSpace=wrap;html=1;shadow=0;labelBackgroundColor=none;strokeColor=#b85450;strokeWidth=3;fillColor=#f8cecc;fontFamily=Helvetica;fontSize=14;align=center;spacing=5;arcSize=7;perimeterSpacing=2;fontStyle=1" vertex="1" parent="Mnyc61CYcTs_VfRObphj-1811">
          <mxGeometry x="150" width="150" height="40" as="geometry" />
        </mxCell>
        <mxCell id="Mnyc61CYcTs_VfRObphj-1814" value="&lt;font style=&quot;font-size: 18px&quot;&gt;&lt;i&gt;proto Map&lt;/i&gt;&lt;/font&gt;" style="rounded=1;whiteSpace=wrap;html=1;shadow=0;labelBackgroundColor=none;strokeColor=#b85450;strokeWidth=3;fillColor=#f8cecc;fontFamily=Helvetica;fontSize=14;align=center;spacing=5;arcSize=7;perimeterSpacing=2;fontStyle=1" vertex="1" parent="1">
          <mxGeometry x="140" y="260" width="300" height="40" as="geometry" />
        </mxCell>
        <mxCell id="Mnyc61CYcTs_VfRObphj-1815" value="" style="group;fillColor=#f8cecc;strokeColor=#b85450;" vertex="1" connectable="0" parent="1">
          <mxGeometry x="140" y="340" width="300" height="40" as="geometry" />
        </mxCell>
        <mxCell id="Mnyc61CYcTs_VfRObphj-1816" value="6" style="rounded=1;whiteSpace=wrap;html=1;shadow=0;labelBackgroundColor=none;strokeColor=#b85450;strokeWidth=3;fillColor=#f8cecc;fontFamily=Helvetica;fontSize=14;align=center;spacing=5;arcSize=7;perimeterSpacing=2;fontStyle=1" vertex="1" parent="Mnyc61CYcTs_VfRObphj-1815">
          <mxGeometry width="150" height="40" as="geometry" />
        </mxCell>
        <mxCell id="Mnyc61CYcTs_VfRObphj-1817" value="0x10" style="rounded=1;whiteSpace=wrap;html=1;shadow=0;labelBackgroundColor=none;strokeColor=#b85450;strokeWidth=3;fillColor=#f8cecc;fontFamily=Helvetica;fontSize=14;align=center;spacing=5;arcSize=7;perimeterSpacing=2;fontStyle=1" vertex="1" parent="Mnyc61CYcTs_VfRObphj-1815">
          <mxGeometry x="150" width="150" height="40" as="geometry" />
        </mxCell>
        <mxCell id="Mnyc61CYcTs_VfRObphj-1818" value="" style="group;fillColor=#f8cecc;strokeColor=#b85450;" vertex="1" connectable="0" parent="1">
          <mxGeometry x="140" y="380" width="300" height="40" as="geometry" />
        </mxCell>
        <mxCell id="Mnyc61CYcTs_VfRObphj-1819" value="17" style="rounded=1;whiteSpace=wrap;html=1;shadow=0;labelBackgroundColor=none;strokeColor=#b85450;strokeWidth=3;fillColor=#f8cecc;fontFamily=Helvetica;fontSize=14;align=center;spacing=5;arcSize=7;perimeterSpacing=2;fontStyle=1" vertex="1" parent="Mnyc61CYcTs_VfRObphj-1818">
          <mxGeometry width="150" height="40" as="geometry" />
        </mxCell>
        <mxCell id="Mnyc61CYcTs_VfRObphj-1820" value="0x100" style="rounded=1;whiteSpace=wrap;html=1;shadow=0;labelBackgroundColor=none;strokeColor=#b85450;strokeWidth=3;fillColor=#f8cecc;fontFamily=Helvetica;fontSize=14;align=center;spacing=5;arcSize=7;perimeterSpacing=2;fontStyle=1" vertex="1" parent="Mnyc61CYcTs_VfRObphj-1818">
          <mxGeometry x="150" width="150" height="40" as="geometry" />
        </mxCell>
        <mxCell id="Mnyc61CYcTs_VfRObphj-1824" value="" style="group;fillColor=#fff2cc;strokeColor=#d6b656;" vertex="1" connectable="0" parent="1">
          <mxGeometry x="140" y="20" width="300" height="40" as="geometry" />
        </mxCell>
        <mxCell id="Mnyc61CYcTs_VfRObphj-1825" value="Key" style="rounded=1;whiteSpace=wrap;html=1;shadow=0;labelBackgroundColor=none;strokeColor=#d6b656;strokeWidth=3;fillColor=#fff2cc;fontFamily=Helvetica;fontSize=14;align=center;spacing=5;arcSize=7;perimeterSpacing=2;fontStyle=1" vertex="1" parent="Mnyc61CYcTs_VfRObphj-1824">
          <mxGeometry width="150" height="40" as="geometry" />
        </mxCell>
        <mxCell id="Mnyc61CYcTs_VfRObphj-1826" value="Value" style="rounded=1;whiteSpace=wrap;html=1;shadow=0;labelBackgroundColor=none;strokeColor=#d6b656;strokeWidth=3;fillColor=#fff2cc;fontFamily=Helvetica;fontSize=14;align=center;spacing=5;arcSize=7;perimeterSpacing=2;fontStyle=1" vertex="1" parent="Mnyc61CYcTs_VfRObphj-1824">
          <mxGeometry x="150" width="150" height="40" as="geometry" />
        </mxCell>
        <mxCell id="Mnyc61CYcTs_VfRObphj-1827" value="&lt;font style=&quot;font-size: 18px&quot;&gt;&lt;i&gt;dst Map&lt;/i&gt;&lt;/font&gt;" style="rounded=1;whiteSpace=wrap;html=1;shadow=0;labelBackgroundColor=none;strokeColor=#d6b656;strokeWidth=3;fillColor=#fff2cc;fontFamily=Helvetica;fontSize=14;align=center;spacing=5;arcSize=7;perimeterSpacing=2;fontStyle=1" vertex="1" parent="1">
          <mxGeometry x="140" y="-20" width="300" height="40" as="geometry" />
        </mxCell>
        <mxCell id="Mnyc61CYcTs_VfRObphj-1831" value="" style="group;fillColor=#b0e3e6;strokeColor=#0e8088;" vertex="1" connectable="0" parent="1">
          <mxGeometry x="-180" y="260" width="300" height="40" as="geometry" />
        </mxCell>
        <mxCell id="Mnyc61CYcTs_VfRObphj-1832" value="Key" style="rounded=1;whiteSpace=wrap;html=1;shadow=0;labelBackgroundColor=none;strokeColor=#0e8088;strokeWidth=3;fillColor=#b0e3e6;fontFamily=Helvetica;fontSize=14;align=center;spacing=5;arcSize=7;perimeterSpacing=2;fontStyle=1" vertex="1" parent="Mnyc61CYcTs_VfRObphj-1831">
          <mxGeometry width="150" height="40" as="geometry" />
        </mxCell>
        <mxCell id="Mnyc61CYcTs_VfRObphj-1833" value="Value" style="rounded=1;whiteSpace=wrap;html=1;shadow=0;labelBackgroundColor=none;strokeColor=#0e8088;strokeWidth=3;fillColor=#b0e3e6;fontFamily=Helvetica;fontSize=14;align=center;spacing=5;arcSize=7;perimeterSpacing=2;fontStyle=1" vertex="1" parent="Mnyc61CYcTs_VfRObphj-1831">
          <mxGeometry x="150" width="150" height="40" as="geometry" />
        </mxCell>
        <mxCell id="Mnyc61CYcTs_VfRObphj-1834" value="&lt;i&gt;&lt;font style=&quot;font-size: 18px&quot;&gt;action Map&lt;/font&gt;&lt;/i&gt;" style="rounded=1;whiteSpace=wrap;html=1;shadow=0;labelBackgroundColor=none;strokeColor=#0e8088;strokeWidth=3;fillColor=#b0e3e6;fontFamily=Helvetica;fontSize=14;align=center;spacing=5;arcSize=7;perimeterSpacing=2;fontStyle=1" vertex="1" parent="1">
          <mxGeometry x="-180" y="220" width="300" height="40" as="geometry" />
        </mxCell>
        <mxCell id="Mnyc61CYcTs_VfRObphj-1835" value="" style="group;fillColor=#b0e3e6;strokeColor=#0e8088;" vertex="1" connectable="0" parent="1">
          <mxGeometry x="-180" y="300" width="300" height="40" as="geometry" />
        </mxCell>
        <mxCell id="Mnyc61CYcTs_VfRObphj-1836" value="0x1" style="rounded=1;whiteSpace=wrap;html=1;shadow=0;labelBackgroundColor=none;strokeColor=#0e8088;strokeWidth=3;fillColor=#b0e3e6;fontFamily=Helvetica;fontSize=14;align=center;spacing=5;arcSize=7;perimeterSpacing=2;fontStyle=1" vertex="1" parent="Mnyc61CYcTs_VfRObphj-1835">
          <mxGeometry width="150" height="40" as="geometry" />
        </mxCell>
        <mxCell id="Mnyc61CYcTs_VfRObphj-1837" value="DROP" style="rounded=1;whiteSpace=wrap;html=1;shadow=0;labelBackgroundColor=none;strokeColor=#0e8088;strokeWidth=3;fillColor=#b0e3e6;fontFamily=Helvetica;fontSize=14;align=center;spacing=5;arcSize=7;perimeterSpacing=2;fontStyle=1" vertex="1" parent="Mnyc61CYcTs_VfRObphj-1835">
          <mxGeometry x="150" width="150" height="40" as="geometry" />
        </mxCell>
        <mxCell id="Mnyc61CYcTs_VfRObphj-1838" value="" style="group;fillColor=#b0e3e6;strokeColor=#0e8088;" vertex="1" connectable="0" parent="1">
          <mxGeometry x="-180" y="340" width="300" height="40" as="geometry" />
        </mxCell>
        <mxCell id="Mnyc61CYcTs_VfRObphj-1839" value="0x10" style="rounded=1;whiteSpace=wrap;html=1;shadow=0;labelBackgroundColor=none;strokeColor=#0e8088;strokeWidth=3;fillColor=#b0e3e6;fontFamily=Helvetica;fontSize=14;align=center;spacing=5;arcSize=7;perimeterSpacing=2;fontStyle=1" vertex="1" parent="Mnyc61CYcTs_VfRObphj-1838">
          <mxGeometry width="150" height="40" as="geometry" />
        </mxCell>
        <mxCell id="Mnyc61CYcTs_VfRObphj-1840" value="ACCEPT" style="rounded=1;whiteSpace=wrap;html=1;shadow=0;labelBackgroundColor=none;strokeColor=#0e8088;strokeWidth=3;fillColor=#b0e3e6;fontFamily=Helvetica;fontSize=14;align=center;spacing=5;arcSize=7;perimeterSpacing=2;fontStyle=1" vertex="1" parent="Mnyc61CYcTs_VfRObphj-1838">
          <mxGeometry x="150" width="150" height="40" as="geometry" />
        </mxCell>
        <mxCell id="Mnyc61CYcTs_VfRObphj-1841" value="" style="group;fillColor=#b0e3e6;strokeColor=#0e8088;" vertex="1" connectable="0" parent="1">
          <mxGeometry x="-180" y="380" width="300" height="40" as="geometry" />
        </mxCell>
        <mxCell id="Mnyc61CYcTs_VfRObphj-1842" value="0x100" style="rounded=1;whiteSpace=wrap;html=1;shadow=0;labelBackgroundColor=none;strokeColor=#0e8088;strokeWidth=3;fillColor=#b0e3e6;fontFamily=Helvetica;fontSize=14;align=center;spacing=5;arcSize=7;perimeterSpacing=2;fontStyle=1" vertex="1" parent="Mnyc61CYcTs_VfRObphj-1841">
          <mxGeometry width="150" height="40" as="geometry" />
        </mxCell>
        <mxCell id="Mnyc61CYcTs_VfRObphj-1843" value="ACCEPT" style="rounded=1;whiteSpace=wrap;html=1;shadow=0;labelBackgroundColor=none;strokeColor=#0e8088;strokeWidth=3;fillColor=#b0e3e6;fontFamily=Helvetica;fontSize=14;align=center;spacing=5;arcSize=7;perimeterSpacing=2;fontStyle=1" vertex="1" parent="Mnyc61CYcTs_VfRObphj-1841">
          <mxGeometry x="150" width="150" height="40" as="geometry" />
        </mxCell>
      </root>
    </mxGraphModel>
  </diagram>
</mxfile>
